<?xml version="1.0" standalone="no"?>
<!DOCTYPE svg PUBLIC "-//W3C//DTD SVG 20010904//EN"
 "http://www.w3.org/TR/2001/REC-SVG-20010904/DTD/svg10.dtd">
<svg version="1.0" xmlns="http://www.w3.org/2000/svg"
 width="180.000000pt" height="180.000000pt" viewBox="0 0 180.000000 180.000000"
 preserveAspectRatio="xMidYMid meet">
<metadata>
Created by potrace 1.16, written by Peter Selinger 2001-2019
</metadata>
<g transform="translate(0.000000,180.000000) scale(0.100000,-0.100000)"
fill="#000000" stroke="none">
<path d="M0 900 l0 -900 900 0 900 0 0 900 0 900 -900 0 -900 0 0 -900z m600
35 l0 -225 85 0 85 0 0 -40 0 -40 -125 0 -125 0 0 265 0 265 40 0 40 0 0 -225z
m300 -41 l0 -265 -42 3 -43 3 -3 263 -2 262 45 0 45 0 0 -266z m156 106 c18
-85 37 -181 44 -213 6 -32 13 -57 15 -55 2 2 22 91 44 198 53 252 45 230 92
230 21 0 39 -3 39 -7 0 -5 -25 -124 -56 -265 l-57 -258 -64 0 c-34 0 -63 1
-63 3 0 1 -25 117 -55 257 -30 140 -55 259 -55 263 0 5 19 7 42 5 l42 -3 32
-155z m532 123 l-3 -38 -87 -3 -88 -3 0 -69 0 -70 80 0 80 0 0 -40 0 -40 -80
0 -80 0 0 -75 0 -75 90 0 90 0 0 -40 0 -40 -130 0 -130 0 0 265 0 265 131 0
130 0 -3 -37z"/>
</g>
</svg>
